<svg xmlns="http://www.w3.org/2000/svg" xmlns:xlink="http://www.w3.org/1999/xlink" width="129" height="87" viewBox="0 0 129 87">
    <defs>
        <path id="a" d="M0 1.327V13.33c0 .52.495.944 1.101.944h3.046l3.817 2.496a1.25 1.25 0 0 0 1.286.03l4.356-2.526h34.277c.606 0 1.1-.423 1.1-.944V1.327c0-.521-.494-.943-1.1-.943H14.579l-3.55 2.06c-1.522.88-4.537.833-6-.123L2.066.384A3.867 3.867 0 0 0 1.111.24C.371.24 0 .602 0 1.327z"/>
        <path id="c" d="M17.92.062l-4.616 3.122a1.165 1.165 0 0 1-1.365-.038L7.895.062H4.667a4.53 4.53 0 0 0-4.53 4.522v11.565a4.53 4.53 0 0 0 4.53 4.523h2.091l3.14 2.395a4.523 4.523 0 0 0 5.29.15l3.764-2.545h25.214a4.531 4.531 0 0 0 4.53-4.523V4.584a4.532 4.532 0 0 0-4.53-4.522H17.92zm-2.731 5.903l3.763-2.545h25.214c.644 0 1.168.522 1.168 1.164v11.565c0 .643-.524 1.167-1.168 1.167H17.92l-4.616 3.121a1.167 1.167 0 0 1-1.364-.038l-4.045-3.083H4.667A1.169 1.169 0 0 1 3.5 16.149V4.584c0-.642.524-1.164 1.167-1.164h2.091l3.14 2.394a4.532 4.532 0 0 0 5.29.151z"/>
        <path id="e" d="M17.947.329l-4.623 3.166c-.416.287-.966.27-1.366-.038L7.908.329H4.673C2.173.329.138 2.387.138 4.915v11.728c0 2.53 2.035 4.587 4.536 4.587h2.094l3.146 2.429a4.501 4.501 0 0 0 5.298.152l3.768-2.581h31.994c2.501 0 4.535-2.058 4.535-4.587V4.915c0-2.528-2.034-4.586-4.535-4.586H17.947zm-2.735 5.986l3.768-2.581h31.994c.644 0 1.168.53 1.168 1.181v11.728c0 .652-.524 1.183-1.168 1.183H17.947l-4.623 3.164a1.153 1.153 0 0 1-1.366-.037l-4.05-3.127H4.673a1.178 1.178 0 0 1-1.17-1.183V4.915c0-.652.526-1.181 1.17-1.181h2.094l3.146 2.43a4.497 4.497 0 0 0 5.298.151z"/>
        <path id="g" d="M1.922.127C1 .127.252.897.252 1.847c0 .949.748 1.72 1.67 1.72h8.175c.921 0 1.67-.771 1.67-1.72 0-.95-.749-1.72-1.67-1.72H1.922z"/>
        <path id="i" d="M1.804.053C.885.053.14.824.14 1.773c0 .95.745 1.72 1.664 1.72h13.08c.919 0 1.664-.77 1.664-1.72 0-.949-.745-1.72-1.664-1.72H1.804z"/>
        <path id="k" d="M1.899.127C.932.127.147.897.147 1.847c0 .949.785 1.72 1.752 1.72h4.29c.967 0 1.752-.771 1.752-1.72 0-.95-.785-1.72-1.752-1.72h-4.29z"/>
    </defs>
    <g fill="none" fill-rule="evenodd">
        <g transform="translate(42.246 49.035)">
            <mask id="b" fill="#fff">
                <use xlink:href="#a"/>
            </mask>
            <path fill="#00B5E2" d="M-2.096 19.08H51.08V-1.876H-2.096z" mask="url(#b)" opacity=".2"/>
        </g>
        <g transform="translate(36.965 18.86)">
            <mask id="d" fill="#fff">
                <use xlink:href="#c"/>
            </mask>
            <path fill="#333" d="M-1.958 26.043h52.75V-1.984h-52.75z" mask="url(#d)"/>
        </g>
        <g transform="translate(36.965 43.754)">
            <mask id="f" fill="#fff">
                <use xlink:href="#e"/>
            </mask>
            <path fill="#333" d="M-1.961 26.675h59.569V-1.746H-1.961z" mask="url(#f)"/>
        </g>
        <g transform="translate(71.667 52.807)">
            <mask id="h" fill="#fff">
                <use xlink:href="#g"/>
            </mask>
            <path fill="#333" d="M-1.828 5.662h15.676v-7.63H-1.828z" mask="url(#h)"/>
        </g>
        <g transform="translate(57.333 27.158)">
            <mask id="j" fill="#fff">
                <use xlink:href="#i"/>
            </mask>
            <path fill="#333" d="M-1.935 5.588h20.558v-7.63H-1.935z" mask="url(#j)"/>
        </g>
        <g transform="translate(57.333 52.807)">
            <mask id="l" fill="#fff">
                <use xlink:href="#k"/>
            </mask>
            <path fill="#333" d="M-2.037 5.662h12.161v-7.63H-2.037z" mask="url(#l)"/>
        </g>
    </g>
</svg>
