<svg xmlns="http://www.w3.org/2000/svg" width="129" height="87" viewBox="0 0 129 87">
    <g fill="none" fill-rule="evenodd">
        <path fill="#00B5E2" d="M84.7 58.091H42.337a1.818 1.818 0 0 1-1.813-1.812V27.052c0-.997.815-1.813 1.813-1.813H84.7c.997 0 1.813.816 1.813 1.813V56.28c0 .996-.816 1.812-1.813 1.812" opacity=".2"/>
        <path fill="#FFF" d="M69.951 56.423s.115-.441.246-1.587c.44-3.849-2.041-6.504-5.895-6.504l-.161.021c-1.97.064-4.011.064-5.978-.021-3.853 0-6.336 2.655-5.895 6.504.13 1.146.246 1.587.246 1.587"/>
        <path stroke="#333" stroke-linecap="round" stroke-width="3.5" d="M69.951 56.423s.115-.441.246-1.587c.44-3.849-2.041-6.504-5.895-6.504l-.161.021c-1.97.064-4.011.064-5.978-.021-3.853 0-6.336 2.655-5.895 6.504.13 1.146.246 1.587.246 1.587"/>
        <path fill="#333" d="M62.999 53.386a1.799 1.799 0 1 1-3.598 0 1.799 1.799 0 0 1 3.598 0"/>
        <path stroke="#333" stroke-linecap="round" stroke-width="3.5" d="M74.037 50.013c1.135-.086 2.047-.624 2.615-1.304.533-.637 1.077-2.073.661-3.396M48.399 49.813c-1.167.311-2.016 1.05-2.477 1.87-.218.388-.4.99-.437 1.658"/>
        <path fill="#FFF" d="M71.65 44.187c-1.277 2.387-4.333 4.173-10.432 4.173-6.098 0-9.155-1.786-10.431-4.173-1.443-2.696-1.45-6.972 0-9.665 1.282-2.38 4.333-4.136 10.431-4.136 6.099 0 9.15 1.756 10.432 4.136 1.45 2.693 1.443 6.97 0 9.665"/>
        <path stroke="#333" stroke-width="3.5" d="M71.65 44.187c-1.277 2.387-4.333 4.173-10.432 4.173-6.098 0-9.155-1.786-10.431-4.173-1.443-2.696-1.45-6.972 0-9.665 1.282-2.38 4.333-4.136 10.431-4.136 6.099 0 9.15 1.756 10.432 4.136 1.45 2.693 1.443 6.97 0 9.665z"/>
        <path fill="#333" d="M57.06 40.383a1.747 1.747 0 0 1-1.747-1.746v-1.345a1.747 1.747 0 0 1 3.494 0v1.345c0 .964-.782 1.746-1.747 1.746M65.34 40.383a1.746 1.746 0 0 1-1.746-1.746v-1.345a1.747 1.747 0 1 1 3.493 0v1.345c0 .964-.782 1.746-1.747 1.746M59.58 42.242v.325a1.69 1.69 0 0 0 3.38 0v-.325a.326.326 0 0 0-.325-.326h-2.73a.326.326 0 0 0-.325.326"/>
        <path stroke="#333" stroke-linecap="round" stroke-width="3.5" d="M42.7 19.208a3.916 3.916 0 0 1 3.906-3.905h42.277a3.917 3.917 0 0 1 3.906 3.905V47.91a3.918 3.918 0 0 1-3.906 3.906"/>
        <path stroke="#333" stroke-width="3.5" d="M82.759 58.091h-42.58a3.765 3.765 0 0 1-3.754-3.753V25.33a3.765 3.765 0 0 1 3.754-3.753h42.58a3.765 3.765 0 0 1 3.754 3.753v29.007a3.765 3.765 0 0 1-3.754 3.753z"/>
        <path stroke="#333" stroke-linecap="round" stroke-width="3.5" d="M36.426 64.902h16.94M36.426 70.959h7.089M49.154 70.959h10.248"/>
    </g>
</svg>
