<svg xmlns="http://www.w3.org/2000/svg" width="78" height="28" viewBox="0 0 78 28">
    <g fill="none" fill-rule="evenodd">
        <path fill="#00B5E2" d="M32.686 4.013c.107 0 .2.065.242.157l3.49 7.842c.163.366.295.986.295 1.386v2.857a7.744 7.744 0 1 1-15.488 0V5.086c0-.4.323-.724.724-.724h2.844c.4 0 .724.325.724.724v11.17a3.452 3.452 0 0 0 6.903 0V4.278c0-.147.119-.266.266-.266zM3 4.375c0-.4.229-.495.512-.212L16.86 17.51c.283.282.512.836.512 1.236v4.624c0 .4-.23.495-.512.212l-9.054-9.055c-.284-.282-.512-.187-.512.212v7.92c0 .4-.326.724-.725.724H3.724A.723.723 0 0 1 3 22.66zm37.53-.013c.4 0 .857.296 1.02.662l5.847 13.131c.162.366.162.958 0 1.323l-1.762 3.955c-.163.366-.427.366-.589 0l-8.197-18.41c-.162-.365.03-.661.43-.661zm19.939 0c.4 0 .591.296.43.662L52.7 23.434c-.162.365-.425.365-.588 0L48.002 14.2c-.163-.365-.163-.957 0-1.323l1.76-3.954c.163-.366.427-.366.59 0l1.76 3.954c.164.365.427.365.59 0l3.496-7.853c.163-.366.619-.662 1.02-.662zm9.238 0c.4 0 .592.296.43.662l-7.88 17.698c-.163.365-.62.662-1.019.662h-3.251c-.4 0-.592-.297-.43-.662l7.88-17.698c.163-.366.619-.662 1.019-.662zm1.525 11.893c.4 0 .857.296 1.02.662l2.585 5.806c.163.365-.03.66-.43.66h-3.251c-.4 0-.857-.295-1.02-.66l-2.584-5.806c-.163-.366.03-.662.43-.662zM16.648 4.362c.4 0 .724.325.724.724v7.716c0 .4-.229.494-.512.211l-3.27-3.269c-.282-.282-.511-.836-.511-1.236V5.086c0-.4.325-.724.724-.724z"/>
    </g>
</svg>
